<svg xmlns="http://www.w3.org/2000/svg" xmlns:xlink="http://www.w3.org/1999/xlink" id="Layer_1" x="0px" y="0px" width="2248.8px" height="1388.2px" viewBox="0 0 2248.8 1388.2" style="enable-background:new 0 0 2248.8 1388.2;" xml:space="preserve"><style type="text/css">	.st0{fill:#ACC1E6;}	.st1{fill:#FFFFFF;}	.st2{fill:#4B494A;}	.st3{fill:#7CA4E6;}	.st4{fill:#F2685D;}	.st5{fill:#2A87DF;}	.st6{fill:#90B3ED;}	.st7{fill:#FFB957;}	.st8{fill:#C2D2ED;}	.st9{fill:#E8F0FF;}	.st10{fill:#CBDCF9;}	.st11{fill:#222222;}	.st12{fill:#C57363;}	.st13{fill:#3565BF;}	.st14{fill:#BD6655;}	.st15{fill:#F59B3B;}	.st16{fill:#5E5C5D;}	.st17{fill:#6F96D6;}	.st18{fill:#E45449;}	.st19{fill:#383737;}	.st20{opacity:0.5;fill:#90B3ED;}</style><g>	<g>		<path class="st0" d="M2247.7,506.9c5.2,11.7-8.5,22.9-16.6,28.8c-11.7,8.5-25.5,13.9-38.7,19.1c-21.9,8.5-44.3,16-66.9,22.8l0,0   c17.1-16.2,34.8-31.8,53.1-46.6c11-8.9,22.7-18.1,35.9-24C2223.6,502.8,2240.2,496.5,2247.7,506.9L2247.7,506.9z"></path>		<path class="st0" d="M2147.8,477.8c10.6,7.1,5,23.9,1.2,33.2c-5.4,13.4-14.2,25.4-22.6,36.8c-14,18.9-29,37.1-44.5,54.9l0,0   c5.9-22.8,12.5-45.5,20.2-67.7c4.6-13.4,9.5-27.4,17.6-39.4C2125.2,487.2,2135.9,473,2147.8,477.8L2147.8,477.8z"></path>		<path class="st0" d="M2073.8,505.8c11.4,5.9,7.6,23.2,4.9,32.9c-3.9,13.9-11.3,26.8-18.4,39c-11.9,20.3-24.7,40.1-38.2,59.5l0,0   c3.3-23.3,7.4-46.6,12.6-69.5c3.1-13.8,6.5-28.3,13.1-41.1C2052.4,517.6,2061.5,502.4,2073.8,505.8L2073.8,505.8z"></path>		<path class="st0" d="M1928.1,590c11.4,5.9,7.6,23.2,4.9,32.9c-3.9,13.9-11.3,26.8-18.4,39c-11.9,20.3-24.7,40.1-38.2,59.5l0,0   c3.3-23.3,7.4-46.6,12.6-69.5c3.1-13.8,6.5-28.3,13.1-41.1C1906.8,601.8,1915.8,586.5,1928.1,590L1928.1,590z"></path>		<path class="st0" d="M1855,645.7c9.8,5.1,6.6,20.1,4.3,28.5c-3.3,12.1-9.8,23.2-16,33.8c-10.3,17.6-21.5,34.8-33.1,51.5l0,0   c2.9-20.2,6.4-40.4,10.9-60.3c2.7-12,5.6-24.5,11.4-35.6C1836.5,656,1844.3,642.8,1855,645.7L1855,645.7z"></path>		<path class="st0" d="M2005.8,524.4c11.3,6.1,6.2,26.8,2.8,38.4c-4.9,16.6-13.4,32.3-21.6,47.2c-13.6,24.7-28.2,48.9-43.3,72.6l0,0   c5-27.6,10.8-55.3,17.7-82.6c4.2-16.5,8.6-33.7,16.3-49.3C1983,539.8,1993.4,521.3,2005.8,524.4L2005.8,524.4z"></path>		<path class="st0" d="M2223,608c-1.8,12.7-19.4,14.8-29.4,15.5c-14.4,1-29-1.8-42.9-4.5c-23.1-4.5-46.1-10.1-68.7-16.4l0,0   c23.1-4.6,46.4-8.4,69.8-11.2c14.1-1.6,28.8-3.3,43.1-1.2C2204.7,591.7,2222.1,595.2,2223,608L2223,608z"></path>		<path class="st0" d="M2161.7,658.1c-3.2,12.4-20.9,12.6-31,12.2c-14.4-0.6-28.6-5-42.2-9.2c-22.5-7-44.7-15.1-66.5-23.9l0,0   c23.5-2,47-3.3,70.6-3.4c14.2-0.1,29-0.1,43,3.6C2145.4,639.9,2162.3,645.3,2161.7,658.1L2161.7,658.1z"></path>		<path class="st0" d="M2016.1,742.2c-3.2,12.4-20.9,12.6-31,12.2c-14.4-0.6-28.6-5-42.2-9.2c-22.5-7-44.7-15.1-66.5-23.9l0,0   c23.5-2,47-3.3,70.6-3.4c14.2-0.1,29-0.1,43,3.6C1999.8,724,2016.7,729.4,2016.1,742.2L2016.1,742.2z"></path>		<path class="st0" d="M1931.2,777.7c-2.7,10.7-18.1,10.9-26.8,10.5c-12.5-0.5-24.8-4.3-36.6-8c-19.5-6.1-38.7-13.1-57.7-20.7l0,0   c20.3-1.7,40.8-2.8,61.2-2.9c12.3-0.1,25.2-0.1,37.3,3.1C1917.1,762,1931.7,766.7,1931.2,777.7L1931.2,777.7z"></path>		<path class="st0" d="M2111.7,707.7c-3.4,12.3-24.7,12-36.8,11.3c-17.3-1.1-34.5-5.8-50.8-10.5c-27.2-7.7-54-16.5-80.4-25.9l0,0   c28.1-1.3,56.3-1.9,84.5-1.3c17,0.4,34.8,0.8,51.7,4.8C2091.6,688.9,2112,694.8,2111.7,707.7L2111.7,707.7z"></path>		<g>			<path class="st0" d="M1738.8,800.9c-0.8-1.3-0.3-3,1-3.8l391.1-225.9c1.3-0.8,3-0.3,3.8,1c0.8,1.3,0.3,3-1,3.8l-391.1,225.9    C1741.3,802.6,1739.6,802.2,1738.8,800.9z"></path>		</g>	</g>	<g>		<path class="st0" d="M366.3,203.1h-15.2c-1.7-6.1-4.1-11.9-7.1-17.2l10.7-10.7c2.9-2.9,2.9-7.6,0-10.5l-18.4-18.4   c-2.9-2.9-7.6-2.9-10.5,0L315.1,157c-5.4-3.1-11.2-5.5-17.2-7.1v-15.2c0-4.1-3.3-7.4-7.4-7.4h-26c-4.1,0-7.4,3.3-7.4,7.4v15.2   c-6.1,1.7-11.9,4.1-17.2,7.1L229,146.2c-2.9-2.9-7.6-2.9-10.5,0L200,164.6c-2.9,2.9-2.9,7.6,0,10.5l10.7,10.7   c-3,5.4-5.5,11.2-7.1,17.2h-15.2c-4.1,0-7.4,3.3-7.4,7.4l0,26c0,4.1,3.3,7.4,7.4,7.4h15.2c1.7,6.1,4.1,11.9,7.1,17.2L200,272   c-2.9,2.9-2.9,7.6,0,10.5l18.4,18.4c2.9,2.9,7.6,2.9,10.5,0l10.7-10.7c5.4,3,11.2,5.5,17.2,7.1v15.2c0,4.1,3.3,7.4,7.4,7.4h26   c4.1,0,7.4-3.3,7.4-7.4v-15.2c6.1-1.7,11.9-4.1,17.2-7.1l10.7,10.7c2.9,2.9,7.6,2.9,10.5,0l18.4-18.4c2.9-2.9,2.9-7.6,0-10.5   L344,261.3c3-5.4,5.5-11.2,7.1-17.2h15.2c4.1,0,7.4-3.3,7.4-7.4v-26C373.8,206.5,370.5,203.1,366.3,203.1z M277.4,257.2   c-18.6,0-33.6-15.1-33.6-33.6c0-18.6,15.1-33.6,33.6-33.6C296,190,311,205,311,223.6C311,242.2,296,257.2,277.4,257.2z"></path>	</g>	<g>		<path class="st0" d="M523.9,822.7l4.4-11.7c-261.2-97.6-393.5-258.7-427.8-305.7c-1-1.4-1.7-2.2-1.8-2.4l-9.2,8.5l4.6-4.3l-4.8,4   c0.2,0.2,0.6,0.8,1.1,1.5C125.2,560.4,259.5,723.9,523.9,822.7z"></path>		<path class="st0" d="M129.5,551.5c0,0-18.1-104.1-109-160.9C20.5,390.6,13.1,470,129.5,551.5z"></path>		<path class="st0" d="M166.4,591.4c0,0-86-68.4-166.4-36.8C0,554.6,47.3,614.7,166.4,591.4z"></path>		<path class="st0" d="M258.4,670.2c0,0,2.6-100.3-88.6-199C169.8,471.2,145.2,554.3,258.4,670.2z"></path>		<path class="st0" d="M282.2,687.7c0,0-131.3-49.3-212.8-20.5C69.4,667.2,147.7,731.4,282.2,687.7z"></path>		<path class="st0" d="M342.5,727.6c0,0,17.8-64.7-0.2-121c-18-56.4-45.9-48.6-87.4-156.2C254.9,450.4,223,586.7,342.5,727.6z"></path>		<path class="st0" d="M325.8,717.2c-3.2,2.4-107-12.5-229.8,64.9c0,0,34.5-11.9,109.8,0.9C281.1,795.8,325.8,717.2,325.8,717.2z"></path>		<path class="st0" d="M434.6,779.1c-83.1-149.7-70.1-293.1-72.6-297.9c50.4,119.3,94,126.4,95.2,195.4   C458.8,762.3,434.6,779.1,434.6,779.1z"></path>		<path class="st0" d="M451.3,785.7c0,0-165.5-20.8-289.3,67.9c0,0,60.5-14.2,145.7,0.9C393,869.7,451.3,785.7,451.3,785.7z"></path>	</g>	<g>		<path class="st0" d="M1721.5,292.8l6.9,7.2c159.8-153.6,320.9-193,366.4-201.4c1.4-0.3,2.2-0.4,2.4-0.5l-2.9-9.5l1.5,4.8l-1.2-4.8   c-0.2,0.1-0.7,0.1-1.5,0.3C2046.7,97.3,1883.3,137.2,1721.5,292.8z"></path>		<path class="st0" d="M2051.6,103.4c0,0,80.9,22.8,152.9-22.7C2204.5,80.7,2150.1,48.1,2051.6,103.4z"></path>		<path class="st0" d="M2010.3,116.1c0,0,78.6-38.1,83.7-106.6C2094,9.5,2034.6,22.7,2010.3,116.1z"></path>		<path class="st0" d="M1922.2,155c0,0,71,36.4,173.2,5C2095.3,160,2044.2,113.8,1922.2,155z"></path>		<path class="st0" d="M1901.4,166c0,0,80.5-77.2,87.9-145.4C1989.4,20.5,1916.4,54.6,1901.4,166z"></path>		<path class="st0" d="M1852.1,195.5c0,0,40.2,35,86.8,41.5c46.6,6.5,50.6-16.1,142-8.9C2080.9,228.1,1994.2,158.3,1852.1,195.5z"></path>		<path class="st0" d="M1865.3,187.1c-0.7-3.1,45.8-72.4,32.6-187.1c0,0-3.3,28.8-38.5,78.4C1824.3,128,1865.3,187.1,1865.3,187.1z"></path>		<path class="st0" d="M1783.5,243.8c135.9-8,234.2,50.7,238.5,50.5c-102.8-4.9-123,23.9-172.9,1   C1787.2,266.9,1783.5,243.8,1783.5,243.8z"></path>		<path class="st0" d="M1773,253.5c0,0,71.9-111.5,50.9-230.7c0,0-10.6,48.3-50.8,104.1S1773,253.5,1773,253.5z"></path>	</g></g><g>	<g>		<path class="st1" d="M41.4,938.4c-1.5-5.5-2.6-11.2-3.3-16.8l4.8-0.6c0.7,5.4,1.8,10.9,3.2,16.2L41.4,938.4z M44.3,947.8l4.5-1.6   c1.8,5.2,4,10.3,6.5,15.2l-4.3,2.2C48.4,958.5,46.2,953.1,44.3,947.8z M37.2,911.8c-0.3-5.7-0.2-11.5,0.3-17.2l4.8,0.4   c-0.5,5.4-0.5,11-0.2,16.5L37.2,911.8z M55.7,972.1l4.1-2.5c2.8,4.7,6,9.3,9.4,13.6l-3.8,3C62,981.8,58.7,977.1,55.7,972.1z    M72,993.6l3.5-3.3c3.7,4,7.8,7.7,12.1,11.2l-3,3.8C80.2,1001.7,75.9,997.8,72,993.6z M92.5,1011.1l2.7-4   c4.5,3.1,9.3,5.9,14.2,8.4l-2.2,4.3C102.2,1017.3,97.2,1014.3,92.5,1011.1z M116.2,1024l1.9-4.4c5.1,2.1,10.3,3.9,15.6,5.4   l-1.3,4.7C126.9,1028,121.5,1026.2,116.2,1024z M138.6,1024.6c-0.8-3-1.5-6.1-2-9.2l4.8-0.7c0.4,2.9,1.1,5.8,1.9,8.7   c0.4,1.4,0.8,2.7,1.2,4c4.9,0.9,9.9,1.5,14.9,1.7l-0.3,4.8c-5.7-0.3-11.4-1-17-2.1l0,0l-1,0.4   C140.1,1029.6,139.3,1027.1,138.6,1024.6C138.6,1024.6,138.6,1024.6,138.6,1024.6z M145,1041.2l4.3-2.2c2.5,4.9,5.5,9.5,8.8,13.8   l-3.8,3C150.8,1051.2,147.6,1046.3,145,1041.2z M135.7,1005.5c0-1,0-2,0-3.1c0-4.7,0.6-9.5,1.5-14.3l4.7,1   c-0.9,4.4-1.4,8.9-1.4,13.3c0,1,0,1.9,0,2.9L135.7,1005.5z M160.9,1063.1l3.4-3.4c3.9,3.9,8.2,7.4,12.7,10.3l-2.6,4   C169.6,1070.9,165.1,1067.3,160.9,1063.1z M139.8,978.6c1.9-5.6,4.5-10.9,7.6-15.7l4,2.6c-2.9,4.5-5.3,9.4-7.1,14.6L139.8,978.6z    M168.9,1034l-0.1-4.8c5.7-0.1,11.2-0.7,16.4-1.7l0.9,4.7C180.6,1033.2,174.8,1033.8,168.9,1034z M183,1078.9l2.1-4.3   c4.5,2.2,9.5,4.2,15.3,6.1l-1.5,4.6C193,1083.3,187.7,1081.2,183,1078.9z M153.5,955c4-4.5,8.6-8.3,13.5-11.2l2.5,4.1   c-4.5,2.7-8.7,6.1-12.4,10.2L153.5,955z M208.3,1088l1.3-4.6c3.7,1,7.4,2,11.1,2.9l5.1,1.3l-1.2,4.7l-5.1-1.3   C215.8,1090,212.1,1089.1,208.3,1088z M194.2,1025.2c5.4-1.7,10.4-3.9,14.9-6.5l2.5,4.1c-4.8,2.9-10.2,5.2-15.9,7L194.2,1025.2z    M176.1,939.5c0.9-0.3,1.8-0.6,2.8-0.9c4.7-1.3,9.6-1.8,14.7-1.6l-0.2,4.8c-4.6-0.2-9,0.3-13.2,1.5c-0.8,0.2-1.7,0.5-2.5,0.8   L176.1,939.5z M233.9,1094.8l1.3-4.6c5.9,1.7,10.7,3.3,15.2,5.1l1,0.4l-1.8,4.5l-0.9-0.4C244.3,1098,239.7,1096.4,233.9,1094.8z    M216.6,1013.3c4.1-3.4,7.6-7.5,10.4-12.2l4.1,2.5c-3.1,5.1-6.9,9.6-11.4,13.4L216.6,1013.3z M202.5,943.1l1.1-4.7   c5.9,1.4,11.3,3.7,16.2,6.9l-2.6,4C212.8,946.5,207.7,944.3,202.5,943.1z M258.1,1104.1l2.2-4.3c5,2.6,9.9,5.7,14.6,9.2l-2.9,3.9   C267.6,1109.6,262.9,1106.6,258.1,1104.1z M231,992.9c1.9-5.2,2.8-10.5,2.6-15.6l4.8-0.2c0.2,5.8-0.8,11.6-2.9,17.4L231,992.9z    M224.1,955.1l3.5-3.3c4.3,4.5,7.4,9.6,9.1,15.3l-4.6,1.4C230.6,963.5,227.9,959,224.1,955.1z M279.4,1118.9l3.2-3.6   c4.2,3.8,8.3,7.9,12,12.3l-3.7,3.1C287.3,1126.5,283.4,1122.5,279.4,1118.9z M317.1,1227c1.1-5.1,1.7-10.4,2-15.8l4.8,0.2   c-0.3,5.6-0.9,11.1-2.1,16.5L317.1,1227z M296.7,1138.1l3.9-2.8c3.3,4.6,6.4,9.5,9.1,14.6l-4.3,2.3   C302.8,1147.3,299.9,1142.6,296.7,1138.1z M319.1,1201.8c-0.2-5.4-0.9-10.9-1.9-16.4l4.7-0.9c1.1,5.7,1.8,11.4,2,17.1   L319.1,1201.8z M309.5,1160.7l4.4-1.9c2.3,5.3,4.2,10.7,5.7,16.2l-4.6,1.3C313.6,1171,311.7,1165.7,309.5,1160.7z"></path>	</g>	<g>		<rect x="2049" y="849.5" class="st1" width="18.9" height="81.1"></rect>		<rect x="2080.6" y="816.6" class="st1" width="18.9" height="114.1"></rect>		<rect x="2112.1" y="837.3" class="st1" width="18.9" height="93.3"></rect>		<rect x="2143.7" y="868.4" class="st1" width="18.9" height="62.2"></rect>	</g>	<g>		<path class="st1" d="M198.8,348c-7.6-2.8-13.6-8.9-16.4-16.4c-1.9-5.2-1.6-5.2-3.5,0c-2.8,7.6-8.9,13.6-16.4,16.4   c-5.2,1.9-5.2,1.6,0,3.5c7.6,2.8,13.6,8.9,16.4,16.4c1.9,5.2,1.6,5.2,3.5,0c2.8-7.6,8.9-13.6,16.4-16.4   C204,349.6,204,349.9,198.8,348z"></path>		<path class="st1" d="M231.6,393.2c-10.3-3.9-18.6-12.1-22.4-22.4c-2.6-7.1-2.2-7.1-4.8,0c-3.9,10.3-12.1,18.6-22.4,22.4   c-7.1,2.6-7.1,2.2,0,4.8c10.3,3.9,18.6,12.1,22.4,22.4c2.6,7.1,2.2,7.1,4.8,0c3.9-10.3,12.1-18.6,22.4-22.4   C238.6,395.3,238.6,395.8,231.6,393.2z"></path>	</g></g><g>	<g>		<path class="st2" d="M1787,52H352.1c-16.6,0-30,13.4-30,30v858.9c0,16.6,13.4,30,30,30H1787c16.6,0,30-13.4,30-30V82   C1817,65.4,1803.5,52,1787,52z"></path>		<rect x="355.7" y="86.2" class="st3" width="1427.7" height="850.3"></rect>		<g>			<path class="st1" d="M1287.3,263.1v234.1c0,58.3-47.3,105.6-105.6,105.6H947.7v0c0-2,0-3.9,0-5.8V368.6    c0-58.3,47.3-105.6,105.6-105.6H1287.3z"></path>			<path class="st4" d="M1117.5,334.6c-54.3,0-98.2,44-98.2,98.2c0,54.3,44,98.2,98.2,98.2c54.3,0,98.2-44,98.2-98.2    C1215.8,378.6,1171.8,334.6,1117.5,334.6 M1117.5,482.6c-27.5,0-49.7-22.3-49.7-49.7c0-27.5,22.3-49.7,49.7-49.7    c27.5,0,49.7,22.3,49.7,49.7C1167.3,460.3,1145,482.6,1117.5,482.6"></path>			<path class="st4" d="M1034.9,526.6l-76.1,76.1c-3.8,0-7.5,0-11.3,0c0-3.9,0-7.7,0-11.6c25-25,50.9-50.9,75.9-75.9    C1027,519.2,1030.8,523,1034.9,526.6"></path>			<path class="st4" d="M1010.5,497.7l-63,63v-23l55-55.1C1004.9,487.8,1007.5,492.9,1010.5,497.7"></path>			<path class="st4" d="M1067.6,547.4l-55.3,55.3h-23l63.2-63.2C1057.3,542.4,1062.3,545.1,1067.6,547.4"></path>			<path class="st4" d="M1215.8,263.1h71.6v71.6C1263.5,310.8,1239.6,286.9,1215.8,263.1"></path>		</g>		<g>			<path class="st1" d="M1716.7,405.9h-315.4c-4.5,0-8.2-3.7-8.2-8.2V194.1c0-4.5,3.7-8.2,8.2-8.2h315.4c4.5,0,8.2,3.7,8.2,8.2    v203.6C1724.9,402.2,1721.2,405.9,1716.7,405.9z"></path>			<path class="st5" d="M1716.7,185.9h-315.4c-4.5,0-8.2,3.7-8.2,8.2v23.2h331.7v-23.2C1724.9,189.6,1721.2,185.9,1716.7,185.9z"></path>			<path class="st6" d="M1418.9,201.6c0,3.3-2.7,6-6,6c-3.3,0-6-2.7-6-6c0-3.3,2.7-6,6-6C1416.2,195.6,1418.9,198.3,1418.9,201.6z"></path>			<path class="st7" d="M1440.4,201.6c0,3.3-2.7,6-6,6c-3.3,0-6-2.7-6-6c0-3.3,2.7-6,6-6C1437.7,195.6,1440.4,198.3,1440.4,201.6z"></path>			<path class="st1" d="M1461.8,201.6c0,3.3-2.7,6-6,6s-6-2.7-6-6c0-3.3,2.7-6,6-6S1461.8,198.3,1461.8,201.6z"></path>			<g>				<g>											<rect x="1704.5" y="192.4" transform="matrix(0.7072 -0.707 0.707 0.7072 357.0746 1265.4038)" class="st1" width="3.4" height="18.4"></rect>				</g>				<g>											<rect x="1697" y="199.9" transform="matrix(0.7071 -0.7071 0.7071 0.7071 357.1424 1265.4897)" class="st1" width="18.4" height="3.4"></rect>				</g>			</g>			<rect x="1412.3" y="369.9" class="st0" width="293.3" height="9.3"></rect>			<g>				<g>					<rect x="1433" y="295.9" class="st5" width="54.3" height="68.4"></rect>					<rect x="1460.2" y="295.9" class="st7" width="27.2" height="68.4"></rect>					<rect x="1478.6" y="295.9" class="st6" width="8.8" height="68.4"></rect>				</g>				<g>					<rect x="1498.9" y="238.6" class="st5" width="54.3" height="125.7"></rect>					<rect x="1526.1" y="238.6" class="st7" width="27.2" height="125.7"></rect>					<rect x="1544.5" y="238.6" class="st6" width="8.8" height="125.7"></rect>				</g>				<g>					<rect x="1564.8" y="271.5" class="st5" width="54.3" height="92.8"></rect>					<rect x="1591.9" y="271.5" class="st7" width="27.2" height="92.8"></rect>					<rect x="1610.3" y="271.5" class="st6" width="8.8" height="92.8"></rect>				</g>				<g>					<rect x="1630.6" y="256.3" class="st5" width="54.3" height="108"></rect>					<rect x="1657.8" y="256.3" class="st7" width="27.2" height="108"></rect>					<rect x="1676.2" y="256.3" class="st6" width="8.8" height="108"></rect>				</g>			</g>		</g>		<g>			<path class="st1" d="M826.6,503.7H454.9c-5.3,0-9.6-4.3-9.6-9.6V254.2c0-5.3,4.3-9.6,9.6-9.6h371.7c5.3,0,9.6,4.3,9.6,9.6v239.9    C836.3,499.4,831.9,503.7,826.6,503.7z"></path>			<path class="st5" d="M826.6,244.6H454.9c-5.3,0-9.6,4.3-9.6,9.6v27.3h391v-27.3C836.3,248.9,831.9,244.6,826.6,244.6z"></path>			<path class="st4" d="M475.6,263.1c0,3.9-3.2,7.1-7.1,7.1c-3.9,0-7.1-3.2-7.1-7.1c0-3.9,3.2-7.1,7.1-7.1    C472.5,256,475.6,259.2,475.6,263.1z"></path>			<path class="st7" d="M501,263.1c0,3.9-3.2,7.1-7.1,7.1c-3.9,0-7.1-3.2-7.1-7.1c0-3.9,3.2-7.1,7.1-7.1    C497.8,256,501,259.2,501,263.1z"></path>			<path class="st1" d="M526.3,263.1c0,3.9-3.2,7.1-7.1,7.1c-3.9,0-7.1-3.2-7.1-7.1c0-3.9,3.2-7.1,7.1-7.1    C523.1,256,526.3,259.2,526.3,263.1z"></path>			<g>				<g>											<rect x="812.3" y="252.2" transform="matrix(0.7072 -0.707 0.707 0.7072 52.4508 652.7483)" class="st1" width="4" height="21.6"></rect>				</g>				<g>											<rect x="803.4" y="261.1" transform="matrix(0.7071 -0.7071 0.7071 0.7071 52.4839 652.813)" class="st1" width="21.6" height="4"></rect>				</g>			</g>			<g>				<polygon class="st0" points="813.2,481.6 468.3,481.6 468.3,299.5 473.2,299.5 473.2,476.8 813.2,476.8     "></polygon>			</g>			<g>				<rect x="482.1" y="382.4" class="st7" width="19.3" height="84.8"></rect>				<rect x="511.9" y="357.8" class="st5" width="19.3" height="109.3"></rect>				<rect x="541.7" y="322.2" class="st4" width="19.3" height="145"></rect>				<rect x="571.5" y="382.4" class="st7" width="19.3" height="84.8"></rect>				<rect x="601.3" y="410.3" class="st5" width="19.3" height="56.8"></rect>				<rect x="631.1" y="367.4" class="st4" width="19.3" height="99.7"></rect>				<rect x="661" y="394.7" class="st7" width="19.3" height="72.5"></rect>				<rect x="690.8" y="343.4" class="st5" width="19.3" height="123.8"></rect>				<rect x="720.6" y="382.4" class="st4" width="19.3" height="84.8"></rect>				<rect x="750.4" y="310.6" class="st5" width="19.3" height="156.6"></rect>				<rect x="780.2" y="357.8" class="st7" width="19.3" height="109.3"></rect>			</g>		</g>		<g>			<path class="st1" d="M2002.8,705.7h-371.7c-5.3,0-9.6-4.3-9.6-9.6V456.1c0-5.3,4.3-9.6,9.6-9.6h371.7c5.3,0,9.6,4.3,9.6,9.6    v239.9C2012.4,701.4,2008.1,705.7,2002.8,705.7z"></path>			<path class="st5" d="M2002.8,446.5h-371.7c-5.3,0-9.6,4.3-9.6,9.6v27.3h391v-27.3C2012.4,450.8,2008.1,446.5,2002.8,446.5z"></path>			<circle class="st4" cx="1644.8" cy="465" r="7.1"></circle>			<circle class="st7" cx="1670.1" cy="465" r="7.1"></circle>			<circle class="st1" cx="1695.4" cy="465" r="7.1"></circle>			<g>				<g>											<rect x="1988.5" y="454.2" transform="matrix(0.7072 -0.707 0.707 0.7072 254.0958 1543.4989)" class="st1" width="4" height="21.6"></rect>				</g>				<g>											<rect x="1979.6" y="463" transform="matrix(0.7071 -0.7071 0.7071 0.7071 254.1875 1543.6465)" class="st1" width="21.6" height="4"></rect>				</g>			</g>			<g>				<rect x="1658.4" y="551.6" class="st8" width="11.6" height="110.9"></rect>				<rect x="1676.3" y="515.5" class="st8" width="11.6" height="147"></rect>				<rect x="1694.2" y="576.5" class="st8" width="11.6" height="85.9"></rect>				<rect x="1712.2" y="604.8" class="st8" width="11.6" height="57.6"></rect>				<rect x="1730.1" y="561.4" class="st8" width="11.6" height="101.1"></rect>				<rect x="1748.1" y="589" class="st8" width="11.6" height="73.5"></rect>				<rect x="1766" y="537" class="st8" width="11.6" height="125.5"></rect>				<rect x="1784" y="576.5" class="st8" width="11.6" height="85.9"></rect>				<rect x="1801.9" y="503.7" class="st8" width="11.6" height="158.7"></rect>				<rect x="1819.9" y="551.6" class="st8" width="11.6" height="110.9"></rect>				<rect x="1838.3" y="576.5" class="st8" width="11.6" height="85.9"></rect>				<rect x="1856.3" y="551.6" class="st8" width="11.6" height="110.9"></rect>				<rect x="1874.2" y="515.5" class="st8" width="11.6" height="147"></rect>				<rect x="1892.2" y="576.5" class="st8" width="11.6" height="85.9"></rect>				<rect x="1910.1" y="604.8" class="st8" width="11.6" height="57.6"></rect>				<rect x="1928.1" y="561.4" class="st8" width="11.6" height="101.1"></rect>				<rect x="1946" y="589" class="st8" width="11.6" height="73.5"></rect>				<rect x="1964" y="537" class="st8" width="11.6" height="125.5"></rect>				<rect x="1658.4" y="667.5" class="st8" width="47.5" height="3.6"></rect>				<rect x="1671" y="673.7" class="st8" width="22.3" height="6.1"></rect>				<rect x="1724.8" y="673.8" class="st8" width="22.3" height="6.1"></rect>				<rect x="1778.6" y="673.8" class="st8" width="22.3" height="6.1"></rect>				<rect x="1833" y="673.8" class="st8" width="22.3" height="6.1"></rect>				<rect x="1886.9" y="673.8" class="st8" width="22.3" height="6.1"></rect>				<rect x="1940.7" y="673.8" class="st8" width="22.3" height="6.1"></rect>				<rect x="1712.2" y="667.6" class="st8" width="47.5" height="3.6"></rect>				<rect x="1766" y="667.5" class="st8" width="47.5" height="3.6"></rect>				<rect x="1820.4" y="667.5" class="st8" width="47.5" height="3.6"></rect>				<rect x="1874.2" y="667.5" class="st8" width="47.5" height="3.6"></rect>				<rect x="1928.1" y="667.5" class="st8" width="47.5" height="3.6"></rect>			</g>		</g>		<g>			<path class="st9" d="M1480.3,227.1h-315.4c-4.5,0-8.2-3.7-8.2-8.2V15.3c0-4.5,3.7-8.2,8.2-8.2h315.4c4.5,0,8.2,3.7,8.2,8.2v203.6    C1488.5,223.4,1484.8,227.1,1480.3,227.1z"></path>			<path class="st5" d="M1480.3,7.2h-315.4c-4.5,0-8.2,3.7-8.2,8.2v23.2h331.7V15.3C1488.5,10.8,1484.8,7.2,1480.3,7.2z"></path>			<path class="st4" d="M1182.5,22.8c0,3.3-2.7,6-6,6c-3.3,0-6-2.7-6-6s2.7-6,6-6C1179.8,16.8,1182.5,19.5,1182.5,22.8z"></path>			<path class="st7" d="M1204,22.8c0,3.3-2.7,6-6,6s-6-2.7-6-6s2.7-6,6-6S1204,19.5,1204,22.8z"></path>			<path class="st1" d="M1225.5,22.8c0,3.3-2.7,6-6,6c-3.3,0-6-2.7-6-6s2.7-6,6-6C1222.8,16.8,1225.5,19.5,1225.5,22.8z"></path>			<g>				<g>											<rect x="1468.1" y="13.7" transform="matrix(0.7072 -0.707 0.707 0.7072 414.2675 1045.9292)" class="st1" width="3.4" height="18.4"></rect>				</g>				<g>											<rect x="1460.7" y="21.2" transform="matrix(0.7071 -0.7071 0.7071 0.7071 414.3756 1046.0406)" class="st1" width="18.4" height="3.4"></rect>				</g>			</g>			<g>				<path class="st6" d="M1199.5,180.5c15.4,0,15.4-64,30.8-64c15.4,0,15.4,56.3,30.8,56.3c15.4,0,15.4-92.7,30.8-92.7     c15.4,0,15.4,92.7,30.8,92.7s15.4-39.7,30.8-39.7c15.4,0,15.4,39.7,30.8,39.7c15.4,0,15.4-73.9,30.8-73.9s15.4,81.7,30.8,81.7     H1199.5z"></path>				<g>					<path class="st7" d="M1445.7,155.4c-8.8,0-12.4-19.4-16.7-41.9c-3.5-18.6-7.5-39.8-14.1-39.8c-6.6,0-10.6,19.1-14.1,35.9      c-4.1,19.5-7.9,38-16.7,38c-8.6,0-12.7-10.5-16.6-20.7c-3.6-9.4-7.4-19-14.2-19c-6.8,0-10.6,9.7-14.2,19      c-3.9,10.2-8,20.7-16.6,20.7c-8.8,0-12.4-22-16.7-47.4c-3.3-20.2-7.5-45.3-14.1-45.3c-6.6,0-10.8,25.1-14.1,45.3      c-4.2,25.5-7.9,47.4-16.7,47.4c-8.7,0-12.5-14.1-16.6-29.1c-3.7-13.4-7.4-27.2-14.1-27.2c-6.7,0-10.6,16.5-14.1,31      c-4.1,17-7.9,33-16.6,33c-0.7,0-1.3-0.6-1.3-1.3c0-0.7,0.6-1.3,1.3-1.3c6.7,0,10.6-16.5,14.1-31c4.1-17,7.9-33,16.6-33      c8.7,0,12.5,14.1,16.6,29.1c3.7,13.4,7.4,27.2,14.1,27.2c6.6,0,10.8-25.1,14.1-45.3c4.2-25.5,7.9-47.4,16.7-47.4      c8.8,0,12.4,22,16.7,47.4c3.3,20.2,7.5,45.3,14.1,45.3c6.8,0,10.6-9.7,14.2-19c3.9-10.2,8-20.7,16.6-20.7      c8.6,0,12.7,10.5,16.6,20.7c3.6,9.4,7.4,19,14.2,19c6.6,0,10.6-19.1,14.1-35.9c4.1-19.5,7.9-38,16.7-38      c8.8,0,12.4,19.4,16.7,41.9c3.5,18.6,7.5,39.8,14.1,39.8c0.7,0,1.3,0.6,1.3,1.3C1447,154.8,1446.5,155.4,1445.7,155.4z"></path>				</g>				<rect x="1199.5" y="191.1" class="st5" width="246.2" height="9.3"></rect>			</g>		</g>		<g>			<polygon class="st1" points="1465.3,719.8 1432.5,662.9 1498.2,662.9    "></polygon>			<path class="st1" d="M1370.4,568.5h143.4c29.6,0,53.5,24,53.5,53.5c0,29.6-24,53.5-53.5,53.5h-143.4c-29.6,0-53.5-24-53.5-53.5    C1316.9,592.4,1340.9,568.5,1370.4,568.5z"></path>			<g>									<ellipse transform="matrix(0.9732 -0.2298 0.2298 0.9732 -103.7029 353.3022)" class="st10" cx="1465.3" cy="622" rx="7.4" ry="7.4"></ellipse>									<ellipse transform="matrix(0.7071 -0.7071 0.7071 0.7071 -2.4163 1238.1233)" class="st10" cx="1493.3" cy="622" rx="7.4" ry="7.4"></ellipse>									<ellipse transform="matrix(0.2298 -0.9732 0.9732 0.2298 501.7359 1877.9281)" class="st10" cx="1437.3" cy="622" rx="7.4" ry="7.4"></ellipse>			</g>		</g>	</g>	<g>		<g>			<path class="st11" d="M1519.3,714.7c-1.9-6.3,7.3-10.2,11.8-11.9c11.1-4.5,23.8-4,34.5,1.6c13.6,7.2,22.9,21,27.8,35.6    c4.2,12.6,5.7,26.4,12.4,38c13.6,23.8,44.9,32.4,59.9,55.4c6.8,10.4,9.6,23.1,9.4,35.6c-0.4,22.3-11.4,45-30.5,56.5    c-19.1,11.5-46.2,9.8-61.8-6.3c-10.9-11.2-15-27.2-18.8-42.5c-8.2-33.8-16.4-67.6-20.5-102.1c-1.2-9.8-2-19.6-4.7-29.1    c-2.7-9.5-7.4-18.6-15-24.9C1521.4,718.5,1519.9,716.6,1519.3,714.7z"></path>			<g>				<g>					<g>						<polygon class="st12" points="1485,1325.4 1479.5,1368 1461.6,1368 1465.5,1315.9       "></polygon>						<path class="st11" d="M1481.5,1352.3c0,0,4,3.1,4.7,18.5c0.1,1.6-1.2,2.9-2.8,2.9h-40.1c-2.6,0-3.7-3.3-1.7-4.9       c4.6-3.6,11.7-8.9,20.9-14.4l6,8.6L1481.5,1352.3z"></path>					</g>					<path class="st13" d="M1491.4,946.1c0,0-35.7,138-35.7,387.8h36.9c0,0,41.6-212.8,43.6-245.7c2.1-32.9,20.5-145.2,20.5-145.2      L1491.4,946.1z"></path>				</g>				<g>					<g>						<path class="st12" d="M1631.8,1326.2l22.4,42.6c0.3,0.5,0.4,1.1,0.3,1.7c-0.4,2.5-2.1,9.4-8.6,16.7c-0.7,0.8-1.8,1.1-2.9,0.8       c-3.8-1.2-13.7-4.8-23.6-12.6c-0.6-0.4-0.9-1.1-1-1.8c-0.7-4.9-3.3-25.7-2.7-47.5H1631.8z"></path>						<path class="st11" d="M1641.5,1344.8l12.6,24c0.3,0.5,0.4,1.1,0.3,1.7c-0.4,2.5-2.1,9.4-8.6,16.7c-0.7,0.8-1.8,1.1-2.9,0.8       c-3.8-1.2-13.7-4.8-23.6-12.6c-0.6-0.4-0.9-1.1-1-1.8c-0.4-2.9-1.5-11.4-2.2-22.3c9.5,9.4,18.8,13.3,18.8,13.3       C1638.3,1358.1,1640.4,1350.1,1641.5,1344.8z"></path>					</g>					<path class="st5" d="M1572.9,943.5c0,0,70.4,182.9,66.3,390.3h-34.6c0,0-90.6-280.9-104.2-392.8L1572.9,943.5z"></path>				</g>			</g>			<g>				<polygon class="st14" points="1552.5,749 1557.6,812.7 1522.5,829.6 1525.2,753.1     "></polygon>				<g>					<path class="st14" d="M1388,813.6c11.7,23.9,37.1,61.7,49.4,79.5c3.9,5.7,11.8,7.1,17.4,3c35.9-26,61.7-67.1,61.7-67.1      l-19.6-10.5c-13.5,14-49.2,47.8-49.2,47.8c-19.2-26-43.7-53.9-48.7-59.5L1388,813.6z"></path>					<g>						<path class="st14" d="M1398.9,806.7c0,0-5-27.9-6.7-31.3c-1.7-3.4-3.6,4.9-3.3,11.4c0.4,6.7-7.3-5.1-7.3-5.1l-17.7,14.1       c0,0,9.1,12.2,24.2,17.8L1398.9,806.7z"></path>						<path class="st14" d="M1378.3,786.6c6.6,8.8,13.1,15.2,14.3,14.2c1.3-1-3-8.9-9.7-17.7c-6.6-8.8-13.1-15.2-14.3-14.2       C1367.4,769.9,1371.7,777.8,1378.3,786.6z"></path>						<path class="st14" d="M1370.6,786.7c7.4,8.4,14.4,14.3,15.7,13.2c1.2-1.1-3.8-8.8-11.2-17.1c-7.4-8.4-14.4-14.3-15.7-13.2       S1363.2,778.4,1370.6,786.7z"></path>						<path class="st14" d="M1367.8,792.4c8,7.1,15.3,12,16.4,10.8c1-1.2-4.6-7.9-12.6-15c-8-7.1-15.3-12-16.4-10.8       C1354.2,778.5,1359.8,785.3,1367.8,792.4z"></path>						<path class="st14" d="M1368.4,800.5c8.3,6.7,15.9,11.2,16.9,10c1-1.2-5-7.7-13.3-14.4s-15.9-11.2-16.9-10       C1354.1,787.3,1360.1,793.7,1368.4,800.5z"></path>					</g>					<path class="st15" d="M1471.8,895.4c0,0,66.8-58.6,54.6-76.9c-21.6-32.3-84.2,35.7-84.2,35.7L1471.8,895.4z"></path>				</g>				<path class="st7" d="M1542.4,804.4c11.9-0.6,34.3,1.8,41.6,30.4c14.5,57.1-1.3,115.1-1.3,115.1h-92.2c0,0-13.2-48.5-13.2-69.5     c0-21,12.1-48.2,32.3-65.8C1516.3,808.9,1533.6,804.9,1542.4,804.4z"></path>				<polygon class="st1" points="1403.5,801.2 1444,918.2 1367.4,918.2 1325.8,801.2     "></polygon>				<g>					<path class="st12" d="M1439.8,897.2c16.2,21.2,48.5,53.2,64,68.3c5,4.8,12.9,4.6,17.6-0.4c30.1-32.6,47.3-77.9,47.3-77.9      l-21.3-6.5c-10.5,16.4-38.9,56.5-38.9,56.5c-24-21.8-53.4-44.3-59.4-48.9L1439.8,897.2z"></path>					<g>						<path class="st12" d="M1449.2,888.3c0,0-10.4-26.4-12.7-29.4c-2.3-3-2.6,5.5-1,11.8c1.7,6.5-8.2-3.6-8.2-3.6l-14.6,17.3       c0,0,11.3,10.2,27.2,12.8L1449.2,888.3z"></path>						<path class="st12" d="M1425.1,872.7c8.2,7.4,15.8,12.3,16.9,11.1c1.1-1.2-4.7-8.1-13-15.5c-8.2-7.4-15.8-12.3-16.9-11.1       C1411,858.4,1416.8,865.3,1425.1,872.7z"></path>						<path class="st12" d="M1417.5,874.3c8.9,6.8,17,11.2,17.9,9.9c1-1.3-5.4-7.8-14.4-14.6s-17-11.2-17.9-9.9       C1402.2,861,1408.6,867.5,1417.5,874.3z"></path>						<path class="st12" d="M1415.9,880.4c9.2,5.4,17.4,8.7,18.2,7.4c0.8-1.3-6.1-6.8-15.3-12.3c-9.2-5.4-17.4-8.7-18.2-7.4       C1399.8,869.5,1406.6,874.9,1415.9,880.4z"></path>						<path class="st12" d="M1418,888.2c9.5,5,17.8,7.9,18.5,6.5c0.7-1.4-6.4-6.5-15.9-11.5c-9.5-5-17.8-7.9-18.5-6.5       C1401.4,878,1408.5,883.2,1418,888.2z"></path>					</g>					<path class="st15" d="M1564.8,930.4c0,0,33.8-97.8,14.8-110.8c-33.7-23-59.6,82.6-59.6,82.6L1564.8,930.4z"></path>				</g>				<g>					<polygon class="st15" points="1556.1,791.5 1562.2,804 1529.5,832.1 1525.5,807.1      "></polygon>					<polygon class="st15" points="1525.5,807.1 1515.5,828.6 1518.1,803.3 1523.6,797.2      "></polygon>				</g>			</g>			<g>				<path class="st12" d="M1554.6,759.4c-6.8,8-16.4,14-26.1,18.2c-2.9,1.3-5.9,2.4-9,2.7c-3.2,0.2-6.5-0.6-8.7-2.9     c-2.1-2.2-2.9-5.4-3.2-8.5c-0.7-7.3,0.5-14.6,2.1-21.7c2.1-9.2,5-18.3,10.6-25.9c3.1-4.2,7.1-7.9,12-9.7     c5.4-1.9,11.5-1.2,16.9,0.7c16.1,5.8,18.5,21.9,12.2,36.4C1559.6,752.7,1557.3,756.2,1554.6,759.4z"></path>				<path class="st11" d="M1561.2,748.7c-5.4-1.5-11.2-3.4-14.3-8c-3.2-4.8-2.6-11.4-6-16.1c-2.6-3.6-7.5-5.4-11.8-4.4     c-3.2,0.8-6.6,2.9-9.5,1.3c-2.1-1.2-2.7-4-2.3-6.4c1.2-5.6,7.1-8.9,12.7-10.2c7.1-1.7,14.8-1.4,21.5,1.5     C1568.7,713.5,1572.8,734.5,1561.2,748.7z"></path>				<path class="st12" d="M1553,749.7c0,0,14-8.5,16.3,0c2.3,8.5-13.4,22.9-21.9,19.6C1539,766,1553,749.7,1553,749.7z"></path>			</g>		</g>		<g>			<g>				<g>					<rect x="1143.3" y="1228.5" class="st6" width="7.8" height="112.4"></rect>					<path class="st6" d="M1175.2,1236.2h-55.9c-4.3,0-7.8-3.5-7.8-7.8v-7.8h71.5v7.8C1183,1232.8,1179.5,1236.2,1175.2,1236.2z"></path>					<g>						<path class="st6" d="M1208.6,1369.6h-7.8v-14c0-6.4-5.2-11.7-11.7-11.7h-83.9c-6.4,0-11.7,5.2-11.7,11.7v14h-7.8v-14       c0-10.7,8.7-19.4,19.4-19.4h83.9c10.7,0,19.4,8.7,19.4,19.4V1369.6z"></path>						<g>															<ellipse transform="matrix(0.2298 -0.9732 0.9732 0.2298 -494.1662 2114.7329)" class="st1" cx="1089" cy="1369.6" rx="18.6" ry="18.6"></ellipse>															<ellipse transform="matrix(0.7071 -0.7071 0.7071 0.7071 -649.4838 1171.1458)" class="st3" cx="1089" cy="1369.6" rx="14" ry="14"></ellipse>						</g>						<g>															<ellipse transform="matrix(0.3827 -0.9239 0.9239 0.3827 -521.1448 1959.1902)" class="st1" cx="1205.5" cy="1369.6" rx="18.6" ry="18.6"></ellipse>							<circle class="st3" cx="1205.5" cy="1369.6" r="14"></circle>						</g>					</g>					<path class="st3" d="M1147.2,1289.5c-6,0-10.9,4.9-10.9,10.9v43.5h21.8v-43.5C1158.1,1294.4,1153.2,1289.5,1147.2,1289.5z"></path>				</g>				<g>					<path class="st4" d="M1239.9,1200.7c-0.6-1.6-1.7-3.2-3-4.3c-2.3-2.1-5.3-3.3-8.2-4.3c-7.9-2.8-16.1-4.8-24.3-6.6      c-18.6-4-37.5-7-56.5-8.8c-10.8-1-21.7-1.7-32.6-0.7c-4.4,0.4-9.4,0.6-12.8,3.7c-3,2.7-4.6,6.9-4.6,10.9c0,5.8,2.8,11.2,6.1,16      c2.3,3.3,5.1,6.6,8.9,7.9c5.7,2.1,12.3,1,18.3,1c7.4,0,14.9,0.1,22.3,0.1c14.7,0.1,29.4,0.1,44.1,0.2c10.6,0,21.3,0.1,31.6-2.4      c4.8-1.2,10.3-3.7,11.1-8.6C1240.5,1203.3,1240.4,1202,1239.9,1200.7z"></path>					<path class="st4" d="M1089.2,1097c-1.2-12.6-2.3-25.3-3.5-37.9c-1.7-18.8-3.6-38-11.4-55.2c-1.4-3.2-3.1-6.3-5.7-8.6      c-5.4-4.7-12.8-3.2-15.8,3.3c-1.2,2.6-1.6,5.5-1.9,8.4c-3.1,28.1,1.8,56.5,6.7,84.4c1.6,9.4,3.3,18.9,5.3,28.2      c0.9,4.4,2,8.9,4.4,12.7s6.5,6.8,11,6.7c5.4-0.1,9.9-4.8,11.6-10c1.7-5.2,1.2-10.8,0.7-16.2      C1090.1,1107.4,1089.6,1102.2,1089.2,1097z"></path>					<path class="st3" d="M1213.3,1224.3h-111.7c-13.5,0-25.3-9.6-28.1-22.8l-36.5-171.1l10.6-2.3l36.5,171.1      c1.7,8.2,9.1,14.1,17.5,14.1h111.7V1224.3z"></path>				</g>			</g>			<g>				<g>					<g>						<polygon class="st12" points="1351.8,1327.4 1359.9,1366.1 1329.1,1377 1318.3,1339.3       "></polygon>						<path class="st11" d="M1324.8,1362.1l2.7,23.6c0.1,1.7,1.8,2.9,3.4,2.3l70.2-24.8c2-0.7,2.3-3.3,0.6-4.5       c-2.5-1.8-6.7-3.7-12.9-3.8c-11.8-0.1-20.9,0.9-31.7-1.7l-8.3,11.3L1324.8,1362.1z"></path>					</g>					<path class="st11" d="M1287,1188.4l29,163.5l44.7-10.1c0,0,6.9-205.6-54.7-225c-48-15.2-88.7-11.9-88.7-11.9L1287,1188.4z"></path>				</g>				<g>					<g>						<polygon class="st12" points="1281,1338 1271.6,1377.1 1238.9,1377.1 1245.2,1338       "></polygon>						<path class="st11" d="M1241.3,1362.4l-6.8,22.5c-0.5,1.7,0.7,3.3,2.5,3.3h74.5c2.1,0,3.3-2.3,2.1-4c-1.8-2.5-5.1-5.7-10.9-7.8       c-11.1-4-18.7-5.7-28-11.7l-12.9,7.5L1241.3,1362.4z"></path>					</g>					<path class="st2" d="M1089.8,1113.5c0,0-2.3,64.6,42.3,74.4c23.2,5.1,121.5-0.7,121.5-0.7s-8.2,38.6-12.1,77.5      c-4.4,43.2-4.6,87.2-4.6,87.2h45.1c7.9-23.6,15.4-47.4,22.4-71.3c7.7-26.2,17.6-83.6,17.1-111.3c-0.3-16.9-5-34.5-20.4-43.7      c-18.1-10.8-88.7-29.1-89.4-29C1211.6,1096.5,1089.8,1113.5,1089.8,1113.5z"></path>				</g>				<g>					<g>						<g>							<path class="st12" d="M1321.2,981.3c0,0,8.5-28.9,10.7-32.6c2.2-3.8,3.9,5.8,3.1,13.2c-0.8,7.7,8.7-5.4,8.7-5.4l19.4,17.1        c0,0-10.4,12.6-24.7,21L1321.2,981.3z"></path>							<path class="st12" d="M1347,962.3c-8.1,9.7-15.8,16.6-17.2,15.4c-1.4-1.2,4-10,12.1-19.7s15.8-16.6,17.2-15.4        C1360.5,943.8,1355.1,952.6,1347,962.3z"></path>							<path class="st12" d="M1355.8,962.8c-8.9,9.1-17.3,15.4-18.6,14.1c-1.3-1.3,4.8-9.8,13.8-18.9c8.9-9.1,17.3-15.4,18.6-14.1        C1370.9,945.3,1364.7,953.7,1355.8,962.8z"></path>							<path class="st12" d="M1358.7,969.4c-9.5,7.7-18.2,12.8-19.3,11.4c-1.1-1.4,5.7-8.7,15.2-16.4c9.5-7.7,18.2-12.8,19.3-11.4        C1375,954.4,1368.2,961.8,1358.7,969.4z"></path>							<path class="st12" d="M1357.6,978.6c-9.9,7.2-18.8,11.9-19.8,10.4c-1.1-1.4,6.1-8.5,16-15.7c9.9-7.2,18.8-11.9,19.8-10.4        C1374.6,964.4,1367.4,971.4,1357.6,978.6z"></path>						</g>						<path class="st13" d="M1222.9,938.8l50.4,73.4l47.2-39.5l26.1,24.6c0,0-33.3,50.7-60.2,67.3c-26.9,16.6-71-47.2-71-47.2       S1203,982.1,1222.9,938.8z"></path>					</g>					<path class="st5" d="M1104.5,947.8c25.1-29.8,99.3-19.9,118.4-8.9c15.6,8.9,5.7,119.7-1.8,160.1l-131.4,32.7      C1089.6,1131.7,1058.1,1003.1,1104.5,947.8z"></path>				</g>				<g>					<g>						<path class="st14" d="M1160.2,882.8c-1.1,16.9-2.1,33.2-3,48.8c11.4,8.6,27.1,8.6,38.5,0c-1.8-14.2-3.9-29.8-6-46.3       C1179.8,884.6,1170,883.6,1160.2,882.8z"></path>					</g>					<path class="st12" d="M1209.7,845c0,0,15.3,41.1-6.7,60.5c-26.6,23.5-46.6-20.2-53.3-46C1149.6,859.5,1178.2,811.1,1209.7,845z      "></path>					<path class="st11" d="M1151.1,878.4c0,0,7.9,11.7,13.7,9.5c5.8-2.2-2.6-18.6-1.1-27.9c1.5-9.3,6.5-17.3,18.9-11.6      c12.4,5.7,15.2,0.8,19.6-1.9c4.3-2.7,5.9,1.3,12.7,2c6.8,0.8,22.3-8.2,11-18.4c-11.3-10.2-38.5-22.6-59.8,2.4      c0,0-17.2-7.6-23.2,8.8S1147,872.1,1151.1,878.4z"></path>					<g>						<path class="st12" d="M1158.2,874.7c-2.1-2.6-8.9-11.6-12.4-3.8c-3.5,7.9,4.5,29.1,14.1,26.2       C1166.1,895.3,1161.1,878.3,1158.2,874.7z"></path>					</g>				</g>				<g>					<g>						<path class="st12" d="M1226,1044.4c0,0,20.4-22.1,24-24.5c3.6-2.4,0.9,6.9-3.1,13.2c-4.1,6.5,10.2-1,10.2-1l9.8,23.9       c0,0-14.9,6.6-31.5,7.9L1226,1044.4z"></path>						<path class="st12" d="M1257.5,1038.7c-11.5,5.1-21.5,7.9-22.2,6.2c-0.7-1.7,8-7.2,19.5-12.3c11.5-5.1,21.5-7.9,22.2-6.2       C1277.8,1028.1,1269.1,1033.6,1257.5,1038.7z"></path>						<path class="st12" d="M1265.2,1043.1c-12.1,4.2-22.3,6.2-22.9,4.4c-0.6-1.8,8.7-6.6,20.7-10.8s22.3-6.2,23-4.4       C1286.5,1034.1,1277.2,1038.9,1265.2,1043.1z"></path>						<path class="st12" d="M1264.8,1050.3c-12,2.7-22,3.4-22.3,1.6c-0.4-1.7,9-5.3,20.9-8c12-2.7,22-3.4,22.3-1.6       S1276.8,1047.7,1264.8,1050.3z"></path>						<path class="st12" d="M1259.7,1058.1c-12.1,2.1-22.1,2.3-22.4,0.6c-0.3-1.8,9.2-4.9,21.3-7c12.1-2.1,22.1-2.3,22.4-0.6       C1281.3,1052.9,1271.8,1056,1259.7,1058.1z"></path>					</g>					<path class="st13" d="M1227.1,1039.8l12.3,27.1c0,0-81.4,38.1-97,37.9c-21.5-0.3-52.4-59.1-52.8-109      c-0.5-65.2,41.7-63.2,50.9-50.3c17,23.7,14,101.3,14,101.3L1227.1,1039.8z"></path>				</g>			</g>		</g>		<g>			<g>				<path class="st11" d="M1560.6,1087.1h218c2.3,0,4.2-1.9,4.2-4.2v-2.7c0-2.3-1.9-4.2-4.2-4.2h-218c-2.3,0-4.2,1.9-4.2,4.2v2.7     C1556.4,1085.2,1558.3,1087.1,1560.6,1087.1z"></path>				<path class="st16" d="M1649.8,1082.9v-2.7c0-2.3-1.9-4.2-4.2-4.2h-85c-2.3,0-4.2,1.9-4.2,4.2v2.7c0,2.3,1.9,4.2,4.2,4.2h85     C1647.9,1087.1,1649.8,1085.2,1649.8,1082.9z"></path>				<path class="st11" d="M1576.7,1084.2h-12.3c-0.8,0-1.4-0.6-1.4-1.4c0-0.8,0.6-1.4,1.4-1.4h12.3c0.8,0,1.4,0.6,1.4,1.4     C1578.1,1083.5,1577.5,1084.2,1576.7,1084.2z"></path>				<path class="st11" d="M1595.4,1084.2h-12.3c-0.8,0-1.4-0.6-1.4-1.4c0-0.8,0.6-1.4,1.4-1.4h12.3c0.8,0,1.4,0.6,1.4,1.4     C1596.8,1083.5,1596.2,1084.2,1595.4,1084.2z"></path>			</g>			<g>				<path class="st11" d="M1671.4,986.4h-127.4c-1.5,0-2.5,1.2-2.1,2.8l20.1,86.9h133l-20.1-86.9     C1674.5,987.6,1673,986.4,1671.4,986.4z"></path>				<polygon class="st6" points="1689.2,1076.1 1567.7,1076.1 1548.3,992.1 1669.8,992.1     "></polygon>				<g>					<g>						<polygon class="st1" points="1668.7,1021.5 1600.1,1021.5 1597,1008 1665.6,1008       "></polygon>						<path class="st3" d="M1612.2,1014.7c0.5,2.3-0.9,4.2-3.2,4.2s-4.6-1.9-5.1-4.2c-0.5-2.3,0.9-4.2,3.2-4.2       C1609.4,1010.6,1611.6,1012.5,1612.2,1014.7z"></path>						<g>							<polygon class="st3" points="1638.8,1013.8 1623.1,1013.8 1622.7,1012.2 1638.5,1012.2        "></polygon>							<polygon class="st3" points="1659.6,1017.3 1623.9,1017.3 1623.5,1015.7 1659.2,1015.7        "></polygon>							<polygon class="st3" points="1658.8,1013.8 1643,1013.8 1642.6,1012.2 1658.4,1012.2        "></polygon>						</g>					</g>					<g>						<polygon class="st1" points="1664.3,1002.5 1558.6,1002.5 1557.4,997.1 1663.1,997.1       "></polygon>						<polygon class="st3" points="1572.7,1000.7 1561.1,1000.7 1560.7,998.9 1572.3,998.9       "></polygon>					</g>					<g>						<polygon class="st1" points="1599.8,1065.4 1573.1,1065.4 1559.9,1008 1586.5,1008       "></polygon>													<ellipse transform="matrix(0.6653 -0.7466 0.7466 0.6653 -233.1187 1517.2325)" class="st3" cx="1575.7" cy="1018.6" rx="6.6" ry="8.3"></ellipse>						<g>							<polygon class="st3" points="1588.5,1031.6 1568.8,1031.6 1568.3,1029.5 1588,1029.5        "></polygon>							<polygon class="st3" points="1589.8,1037.2 1570.1,1037.2 1569.6,1035 1589.3,1035        "></polygon>							<polygon class="st3" points="1591.1,1042.7 1571.4,1042.7 1570.9,1040.6 1590.6,1040.6        "></polygon>							<polygon class="st3" points="1592.4,1048.3 1572.7,1048.3 1572.2,1046.2 1591.9,1046.2        "></polygon>							<polygon class="st3" points="1593.6,1053.9 1574,1053.9 1573.5,1051.7 1593.2,1051.7        "></polygon>						</g>					</g>					<g>						<polygon class="st1" points="1644.5,1065.4 1610.3,1065.4 1602.4,1031.1 1636.6,1031.1       "></polygon>						<path class="st3" d="M1633.7,1048.2c1.3,5.7-2.2,10.3-7.9,10.3c-5.7,0-11.3-4.6-12.6-10.3c-1.3-5.7,2.2-10.3,7.9-10.3       C1626.7,1038,1632.4,1042.6,1633.7,1048.2z"></path>					</g>					<g>						<polygon class="st1" points="1678.8,1065.4 1656.6,1065.4 1648.7,1031.1 1670.9,1031.1       "></polygon>						<g>							<polygon class="st3" points="1669.3,1038.2 1653.6,1038.2 1653.1,1036.1 1668.8,1036.1        "></polygon>							<polygon class="st3" points="1670.6,1043.7 1654.9,1043.7 1654.4,1041.6 1670.1,1041.6        "></polygon>							<polygon class="st3" points="1671.9,1049.3 1656.2,1049.3 1655.7,1047.2 1671.4,1047.2        "></polygon>							<polygon class="st3" points="1673.1,1054.9 1657.4,1054.9 1657,1052.7 1672.6,1052.7        "></polygon>							<polygon class="st3" points="1674.4,1060.4 1658.7,1060.4 1658.2,1058.3 1673.9,1058.3        "></polygon>						</g>					</g>				</g>			</g>		</g>		<g>			<rect x="1276.9" y="1087.1" class="st1" width="507" height="18.9"></rect>			<rect x="1369.4" y="1098.9" class="st1" width="18" height="289.3"></rect>			<rect x="1427.1" y="1098.9" class="st1" width="18" height="289.3"></rect>							<rect x="1723.4" y="1098.9" transform="matrix(-1 -1.224647e-16 1.224647e-16 -1 3464.7617 2487.1609)" class="st1" width="18" height="289.3"></rect>			<rect x="1376.3" y="1144" class="st1" width="356.1" height="10.5"></rect>		</g>		<g>			<g>				<path class="st12" d="M1769.4,1011.6c0,0-21.9-22.3-49.6-11.1c-27.7,11.2,22.9,14.2,39.6,21.2L1769.4,1011.6z"></path>				<path class="st17" d="M1929.3,931.3c16.2-5.3,28.2,4,29.5,26.8c1.3,22.9-57.7,107.8-73.9,106.8c-33.1-2-137.8-40.1-137.8-40.1     l16.6-27.8l98,22.9C1861.9,1019.9,1913.9,936.4,1929.3,931.3z"></path>			</g>			<g>				<polygon class="st12" points="1877.9,880.4 1877.9,955.9 1913.9,955.9 1901.7,866.9     "></polygon>				<path class="st12" d="M1841.9,850.1c0,0-7.3,40.9,16.8,59.2s44.8-23.8,50.1-51.8C1914.3,829.5,1851.6,810.7,1841.9,850.1z"></path>				<path class="st11" d="M1837.8,842.8c-0.8,5.6,7.8,8.7,12.3,10.7c4.3,1.8,8.9,3.6,13.5,4.2c5.3,0.6,11.9-1.5,13.4,5.7     c1.3,6.1-1.7,12.2-1.8,18.3c-0.1,9,4,16.1,12.5,19.6c9.1,3.7,48.8-10,46.5-55.3c-0.9-17.8-20.3-20.5-20.3-20.5     s-4.7-15.2-28.9-16.8C1858.9,807.1,1840.9,821.7,1837.8,842.8z"></path>				<path class="st12" d="M1875.3,866.1c0.7-1.9,4-7.8,7.6-3.4c3.5,4.4,2.6,12.8-4,16.8C1872.3,883.6,1873.6,871.3,1875.3,866.1z"></path>				<path class="st3" d="M1867.2,934.9c0,0-6.5-14,22-18.5s38.7-3,37.8,13.5L1867.2,934.9z"></path>			</g>			<g>				<g>					<g>						<polygon class="st12" points="1830.8,1341.2 1838.9,1377.8 1869.5,1377.8 1856.8,1341.2       "></polygon>						<path class="st11" d="M1865.3,1364l8.1,20.9c0.6,1.6-0.6,3.3-2.2,3.3h-58.2c-1.7,0-2.8-1.6-2.3-3.2c0.9-2.5,3.1-5.8,8.8-8       c9.9-3.8,8.5-5.6,16.8-11.2l13.2,7.3L1865.3,1364z"></path>					</g>					<path class="st13" d="M1824.8,1164.9c0,0,28.2,106.9,40.3,187.3h-42.7c0,0-33.6-106.1-41.5-132.9c-7.9-26.8-22.3-54,0-62.7      C1803.1,1147.9,1824.8,1164.9,1824.8,1164.9z"></path>				</g>				<g>					<g>						<polygon class="st12" points="1770.4,1341.2 1771.7,1377.8 1802.3,1377.8 1796.4,1341.2       "></polygon>						<path class="st11" d="M1800.1,1364l4.4,21.3c0.3,1.5-0.8,2.9-2.4,2.9h-59.7c-1.7,0-2.9-1.7-2.3-3.2c0.9-2.5,3.3-5.8,9.2-7.9       c10.4-3.8,13.1-5.3,21.9-11l9.7,7L1800.1,1364z"></path>					</g>					<path class="st5" d="M1960.2,1109.8c0,0,2.3,64.6-42.3,74.4c-23.2,5.1-47.5,4-71,1.7c-9.3-0.9-18.6-2.2-27.9-3.4      c-7.9-1.1-17.2-2.7-24.3,2c-9.5,6.2-7.6,19.8-5.8,29.3c8.8,44.4,13.4,87.7,14.5,133c0,0.5,0.1,5.5,0.1,5.5l-35.5,0      c-10.2-24.3-17.2-51.3-24-76.7c-9.6-35.8-16.1-72.7-15.5-109.9c0.3-16.9,5-34.5,20.4-43.7c18.1-10.8,42.5-7.8,62.7-7      c7.6,0.3,15.5,0.9,23-0.6c3.1-0.6,6.1-1.6,8.8-3.1c1.3-0.7,6.5-6.3,7.2-6.2C1850.6,1104.9,1960.2,1109.8,1960.2,1109.8z"></path>				</g>			</g>			<path class="st6" d="M1850.6,1104.9c0,0,16.4-26.2,2.9-77c-11.5-43.1-27.3-82.5-3.4-92.4c41-16.9,85.7-17.4,105.1,0    c19.5,17.4,25.2,111.9,5,174.2L1850.6,1104.9z"></path>			<g>				<path class="st12" d="M1711.7,1061.4c0,0-27.3-15.1-50.7,3.6c-23.3,18.7,26,7,44,9L1711.7,1061.4z"></path>				<path class="st3" d="M1842,938.7c14-9.8,28.2-4.3,36,17.2c7.8,21.5-24.4,119.8-40.2,123.5c-32.3,7.6-143.5,1-143.5,1l8-31.4     l100.5-6.1C1802.7,1042.9,1828.7,948,1842,938.7z"></path>			</g>		</g>		<g>			<g>				<rect x="1936.6" y="1228.5" class="st6" width="7.8" height="112.4"></rect>				<path class="st6" d="M1968.4,1236.2h-55.9c-4.3,0-7.8-3.5-7.8-7.8v-7.8h71.5v7.8C1976.2,1232.8,1972.7,1236.2,1968.4,1236.2z"></path>				<g>					<path class="st6" d="M2001.9,1369.6h-7.8v-14c0-6.4-5.2-11.7-11.7-11.7h-83.9c-6.4,0-11.7,5.2-11.7,11.7v14h-7.8v-14      c0-10.7,8.7-19.4,19.4-19.4h83.9c10.7,0,19.4,8.7,19.4,19.4V1369.6z"></path>					<g>													<ellipse transform="matrix(0.9239 -0.3827 0.3827 0.9239 -380.8368 824.5406)" class="st1" cx="1882.2" cy="1369.6" rx="18.6" ry="18.6"></ellipse>						<circle class="st3" cx="1882.2" cy="1369.6" r="14"></circle>					</g>					<g>													<ellipse transform="matrix(0.9732 -0.2298 0.2298 0.9732 -261.1936 495.8536)" class="st1" cx="1998.7" cy="1369.6" rx="18.6" ry="18.6"></ellipse>													<ellipse transform="matrix(0.7071 -0.7071 0.7071 0.7071 -383.0128 1814.4635)" class="st3" cx="1998.7" cy="1369.6" rx="14" ry="14"></ellipse>					</g>				</g>				<path class="st3" d="M1940.5,1289.5c-6,0-10.9,4.9-10.9,10.9v43.5h21.8v-43.5C1951.4,1294.4,1946.5,1289.5,1940.5,1289.5z"></path>			</g>			<g>				<path class="st18" d="M1875,1226.1h95.8c0,0,74,0.8,98.4-77.9l26.8-113.5c0,0,3.1-19.4-18.2-23.2c-35.8-6.4-100.4,0.2-100.4,0.2     s-17.9,129.7-34.6,156C1926.1,1193.8,1875,1226.1,1875,1226.1z"></path>				<g>					<path class="st4" d="M1875,1226.1h-36.9c-11.2,0-20.2-9-20.2-20.2s9-20.2,20.2-20.2h36.9c28.3,0,52.5-19.2,59-46.8l26.3-111.9      c2.5-10.9,13.4-17.6,24.3-15.1c10.9,2.6,17.6,13.4,15.1,24.3l-26.3,111.9C1962.6,1194,1922.1,1226.1,1875,1226.1z"></path>				</g>			</g>		</g>		<g>			<rect x="1290" y="1076.2" class="st11" width="64.9" height="10.9"></rect>			<rect x="1354.9" y="1076.2" class="st19" width="117.7" height="10.9"></rect>			<polygon class="st2" points="1489.6,987.1 1371.8,987.1 1354.9,1076.2 1472.6,1076.2    "></polygon>			<g>				<path class="st16" d="M1383.4,999.3h94.7c0.9,0,1.7-0.8,1.7-1.7c0-0.9-0.8-1.7-1.7-1.7h-94.7c-0.9,0-1.7,0.8-1.7,1.7     C1381.7,998.6,1382.5,999.3,1383.4,999.3z"></path>			</g>			<path class="st16" d="M1410,1032.8c-1.3,9.2,3.9,17.6,11.7,18.7s15.1-5.5,16.4-14.8s-3.9-17.6-11.7-18.7    C1418.7,1016.9,1411.3,1023.5,1410,1032.8z"></path>			<path class="st11" d="M1371.8,987.1L1371.8,987.1c-1.6,0-2.9,1.1-3.3,2.6l-21.6,86.5h8L1371.8,987.1z"></path>		</g>	</g>	<g>		<g>			<path class="st5" d="M818.8,1267c0,0-11.8-249.2,124.2-345.9c0,0,25.3,62.5,0,117c-25.3,54.5-45.2,19.8-79,78.6    c0,0,15.2-8.4,41-9.7c0,0-83.6,85.3-80.7,158L818.8,1267z"></path>			<path class="st13" d="M904.9,1106.9c-25.8,1.3-41,9.7-41,9.7c33.8-58.7,53.6-24.1,79-78.6c25.3-54.5,0-117,0-117    s5.5,57.6-24.9,104.3c-30.4,46.7-85.7,66.3-99.2,241.6l5.5-2.1C821.3,1192.3,904.9,1106.9,904.9,1106.9z"></path>		</g>		<g>			<path class="st5" d="M839.9,1267c0,0,19.8-92.5,79.8-136.8c60-44.3,69.9-34.6,99.8-75.6c0,0,21,83.2-52.1,112.8    s-99.2,40.5-121.6,99.7H839.9z"></path>			<path class="st13" d="M898.2,1174.1c-35.7,24-51.3,76.4-55.4,92.9h3c22.4-59.1,48.6-70.1,121.6-99.7    c73.1-29.6,52.1-112.8,52.1-112.8C990,1156.8,940.8,1145.4,898.2,1174.1z"></path>		</g>		<g>			<path class="st13" d="M718.3,885.4c0,0,107.1,80.2,94.4,381.6h-10.8c0,0,5.7-35.7-23.4-52.2c-29.1-16.5-37-54.1-37-54.1    s30,2.7,49.6,18.6c0,0-36.7-95-78.6-119.1c0,0,17.7-9.3,41.2,1.3C753.7,1061.5,673.3,946.9,718.3,885.4z"></path>			<path class="st5" d="M741.5,1001.4c30,43.1,29.4,66.5,32.5,86.8c2.3,14.8,19.1,59.1,39.1,95.3c-8-233-94.8-298.1-94.8-298.1    S711.5,958.3,741.5,1001.4z"></path>		</g>		<g>			<path class="st13" d="M796.4,1267c0,0-61.7-127.8-193.8-161.3c0,0-3,80.2,138.9,109.8c0,0-5.1-1.3-20.7,10.1    c0,0,53.6,8.9,68,41.4H796.4z"></path>			<path class="st5" d="M602.5,1105.7c0,0,34.2,53.6,78.1,68.8c34.5,11.9,54.7,18.5,75,32.2C724,1168.7,673.4,1123.7,602.5,1105.7z"></path>		</g>		<g>			<path class="st6" d="M896.1,1260.2c0,96.3-38,128-38,128h-78.6c0,0-38-31.7-38-128H896.1z"></path>			<path class="st3" d="M863.7,1260.2c-1.3,75.8-18.9,113.7-27.6,128H858c0,0,38-31.7,38-128H863.7z"></path>		</g>	</g>	<g>		<g>			<g>				<g>					<polygon class="st11" points="653.9,685.4 630.1,676.7 651.3,618.5 675.1,627.1      "></polygon>				</g>			</g>			<g>				<path class="st2" d="M621.9,779.7L594,769.6c-2.9-1-4.3-4.2-3.3-7.1l36.2-99.4c1-2.9,4.2-4.3,7.1-3.3l27.9,10.1     c2.9,1,4.3,4.2,3.3,7.1l-36.2,99.4C627.9,779.3,624.7,780.8,621.9,779.7z"></path>			</g>			<g>				<path class="st20" d="M665.7,616.1c-33.8-12.3-51.3-49.8-39-83.6c12.3-33.8,49.8-51.3,83.6-39c33.8,12.3,51.3,49.8,39,83.6     C736.9,610.9,699.4,628.4,665.7,616.1z"></path>				<path class="st2" d="M716.2,477.3c-42.8-15.6-90.2,6.5-105.7,49.3c-15.6,42.8,6.5,90.2,49.3,105.7     c42.8,15.6,90.2-6.5,105.7-49.3C781.1,540.2,759,492.8,716.2,477.3z M665.7,616.1c-33.8-12.3-51.3-49.8-39-83.6     c12.3-33.8,49.8-51.3,83.6-39c33.8,12.3,51.3,49.8,39,83.6C736.9,610.9,699.4,628.4,665.7,616.1z"></path>				<path class="st1" d="M661.5,522.4c-2.6,2.1-5.7,3-7.4,1.5c-1.6-1.4-0.8-5.1,2.4-7.7c0.8-0.6,3.7-2.9,8.3-5.1     c4.5-2.2,10.5-4.1,16.6-4.5c6.1-0.5,11.9,0.4,16,1.7c4.1,1.4,6.5,2.9,6.3,3.4c-0.2,0.6-2.9,0-6.9-0.3c-4-0.4-9.4-0.3-14.7,0.8     c-5.3,1-10.3,3.2-13.9,5.4C664.5,519.7,662.1,521.9,661.5,522.4z"></path>			</g>		</g>		<g>			<g>				<g>					<polygon class="st12" points="363.3,1293.9 338.3,1346.6 360.8,1357.2 393.1,1308.1      "></polygon>					<path class="st11" d="M344.1,1334.5l-11.6,13.1c-1.1,1.2-0.9,3.1,0.4,4l44.5,33.1c2,1.5,4.7-0.2,4.3-2.6      c-1-7.3-4.3-20.2-14.2-35l-12.3,5.6L344.1,1334.5z"></path>				</g>				<path class="st11" d="M454.1,975.9c0,0-33.2,51-35.9,82.9s10,83.4-15.9,123.9c-26,40.5-71.1,117.5-71.1,117.5l84.3,30.1     c0,0,62.6-147.6,71.6-207.7c9-60.1,10.8-146.7,10.8-146.7H454.1z"></path>			</g>			<g>				<g>					<polygon class="st12" points="528.4,1319.9 528.4,1378.2 553.2,1378.2 561.4,1319.9      "></polygon>					<path class="st11" d="M528.4,1364.8l-5.8,20c-0.5,1.7,0.8,3.5,2.6,3.5h52.8c2.5,0,3.7-3.1,1.8-4.8c-4.3-3.8-12-9.7-24.9-17.3      l-8.8,10.4L528.4,1364.8z"></path>				</g>				<path class="st2" d="M473.3,979.8c0,0-16.9,36.9-8.7,84.3c8.2,47.4,55.1,145.8,39.6,273.8h86.1c0,0-28.2-283.1-72.9-345     L473.3,979.8z"></path>			</g>		</g>		<g>			<g>				<path class="st12" d="M364.4,1042.9c-0.8-13,5.3-85.4,11.8-102.9c6.7-17.8,60.4-120,94.2-88.1c15.8,15,0.1,28.7,0.1,28.7     c-10.1,10.3-68.2,73.7-73,87.2c-3.8,10.8-11.9,57-15,75.2L364.4,1042.9z"></path>				<path class="st15" d="M360,1023.9c1.9-26.9,8.7-71.4,13.4-83.8c6.7-17.8,63.2-120.1,96.9-88.2c15.8,15,0.1,28.7,0.1,28.7     c-10.1,10.3-64.9,73-69.7,86.5c-2.6,7.5-6.3,31-9.9,51.5L360,1023.9z"></path>				<g>					<path class="st12" d="M382.4,1043c0,0,11.8,22.6,12.7,26.3c0.9,3.7-5.9-1.4-9.8-6.5c-4.1-5.3-2.3,8.6-2.3,8.6l-22.5,0.7      c0,0-0.2-15.3,3.8-29.2L382.4,1043z"></path>					<path class="st12" d="M377.4,1069.7c-0.7-11,0.1-19.9,1.7-20c1.6-0.1,3.4,8.7,4.1,19.7c0.7,11-0.1,19.9-1.7,20      S378,1080.6,377.4,1069.7z"></path>					<path class="st12" d="M371.5,1074.6c0.2-11.1,1.7-20.1,3.4-20.1c1.6,0,2.7,9.1,2.5,20.2c-0.2,11.1-1.7,20.1-3.4,20.1      C372.4,1094.7,371.2,1085.7,371.5,1074.6z"></path>					<path class="st12" d="M365.7,1072.1c1.5-10.6,3.9-18.9,5.5-18.7c1.5,0.2,1.6,8.9,0.1,19.5c-1.5,10.6-3.9,18.9-5.5,18.7      C364.3,1091.4,364.2,1082.6,365.7,1072.1z"></path>					<path class="st12" d="M360.9,1065.6c2-10.5,4.8-18.7,6.3-18.4s1.2,9-0.8,19.5c-2,10.5-4.8,18.7-6.3,18.4      C358.6,1084.8,359,1076.1,360.9,1065.6z"></path>				</g>			</g>			<polygon class="st14" points="474.1,784.7 463.7,847.7 493.4,848.2 494.4,797.6    "></polygon>			<path class="st7" d="M508.1,856.4c-0.1-0.1-0.2-0.3-0.3-0.4c-9.8-12.2-20.8-21-37.3-19.6c-11.3,0.9-21.4,6.8-25.5,17.7    c-4.4,11.8-0.8,24.4,1.9,36.1c4,17.3,7.8,35.3,7.5,53.2c-0.4,27.8-16.7,53.7-16.7,53.7l95.9,12c0,0-13.7-42.6-5.8-60.4    c5.7-12.9,15.1-32,6.4-49.9C526.9,884,518.4,869.5,508.1,856.4z"></path>			<g>				<path class="st12" d="M641.9,737.9c-3.7,12.5-32.1,76.1-44.2,90.2c-12.4,14.5-97.7,92.2-118.6,50.7c-9.8-19.5,9.7-27,9.7-27     c13-6.2,89.3-46,98.3-57.1c7.2-8.8,31-51.5,40.2-67.5L641.9,737.9z"></path>				<path class="st15" d="M637.3,764.4c-10.9,24.6-28.3,54.5-36.9,64.5c-12.4,14.5-100.4,91.3-121.2,49.8c-9.8-19.5,9.7-27,9.7-27     c13-6.2,86-46.5,95-57.6c5.1-6.2,19.9-32.9,30.3-50.9L637.3,764.4z"></path>				<g>					<path class="st12" d="M627.4,727.2c0,0,3.7-25.2,5.1-28.7c1.4-3.5,4,4.6,4.1,11c0.2,6.7,6.9-5.7,6.9-5.7l18.6,12.6      c0,0-8.8,12.5-20.2,21.5L627.4,727.2z"></path>					<path class="st12" d="M647.1,708.5c-5.9,9.3-11.8,16.1-13.1,15.2c-1.4-0.9,2.3-9.1,8.2-18.3c5.9-9.3,11.8-16.1,13.1-15.2      C656.6,691,653,699.3,647.1,708.5z"></path>					<path class="st12" d="M654.7,708c-6.7,8.9-13.2,15.3-14.5,14.3c-1.3-1,3.1-9,9.8-17.8c6.7-8.9,13.2-15.3,14.5-14.3      C665.8,691.1,661.4,699.1,654.7,708z"></path>					<path class="st12" d="M658,713.4c-7.4,7.7-14.3,13.1-15.4,12c-1.1-1.1,3.9-8.2,11.3-15.9s14.3-13.1,15.4-12      C670.4,698.6,665.3,705.7,658,713.4z"></path>					<path class="st12" d="M658,721.4c-7.7,7.3-14.9,12.4-15.9,11.2c-1.1-1.1,4.3-8,12.1-15.3c7.7-7.3,14.9-12.4,15.9-11.2      C671.2,707.2,665.8,714.1,658,721.4z"></path>				</g>			</g>		</g>		<g>			<path class="st12" d="M503.1,738.7c0,0,9.3,18.7,10.3,36.9c1.1,18.2-1.4,32.8-13.1,35.4c-11.7,2.6-39-28.3-39-28.3    S453.8,740.2,503.1,738.7z"></path>			<path class="st11" d="M477.6,767.9l0,0.7c9.9,17.3,4.9,78.3-21,95.2c-18.9,12.4-101.8-21.6-62.5-65.3    c10.1-11.3,35-21.9,38.8-30.1c3.8-8.2,7.6-16.8,14.3-22.8c6.7-6.1,18.6-10,26.2-5c4.4-8.3,14.3-13.2,23.6-11.8    c9.3,1.4,18.1,8.9,19.8,18.1C506.4,757.7,492.5,765.2,477.6,767.9z"></path>			<path class="st12" d="M484.6,769.2c0,0-6.3-11.3-10.9-6.5c-4.7,4.7-0.7,19.6,9,23.7c9.6,4.1,7.7-5.3,7.7-5.3L484.6,769.2z"></path>		</g>	</g>	<g>		<polygon class="st1" points="1082.1,782.7 1115,725.8 1049.3,725.8   "></polygon>		<path class="st1" d="M1177,631.3h-143.4c-29.6,0-53.5,24-53.5,53.5s24,53.5,53.5,53.5H1177c29.6,0,53.5-24,53.5-53.5   S1206.5,631.3,1177,631.3z"></path>		<g>							<ellipse transform="matrix(0.7071 -0.7071 0.7071 0.7071 -167.2848 965.7419)" class="st10" cx="1082.1" cy="684.8" rx="7.4" ry="7.4"></ellipse>							<ellipse transform="matrix(0.7071 -0.7071 0.7071 0.7071 -175.4913 945.9298)" class="st10" cx="1054.1" cy="684.8" rx="7.4" ry="7.4"></ellipse>							<ellipse transform="matrix(0.7071 -0.7071 0.7071 0.7071 -159.0784 985.5541)" class="st10" cx="1110.1" cy="684.8" rx="7.4" ry="7.4"></ellipse>		</g>	</g></g></svg>